<svg id="Illustration" xmlns="http://www.w3.org/2000/svg" xmlns:xlink="http://www.w3.org/1999/xlink" viewBox="0 0 2829.06 2810.37"><defs><style>.cls-1{fill:url(#linear-gradient);}.cls-2{fill:url(#linear-gradient-2);}.cls-3{fill:url(#linear-gradient-3);}.cls-4,.cls-6{opacity:0.37;}.cls-5,.cls-6,.cls-8{fill:#fff;}.cls-7{fill:url(#linear-gradient-4);}.cls-8{opacity:0.53;}.cls-9{fill:#7d97f4;}.cls-10{fill:#91b3fa;}.cls-11{opacity:0.3;}.cls-12{fill:url(#linear-gradient-5);}.cls-13{fill:url(#linear-gradient-6);}.cls-14{fill:url(#linear-gradient-7);}.cls-15{fill:url(#linear-gradient-8);}.cls-16{fill:url(#linear-gradient-9);}.cls-17{fill:url(#linear-gradient-10);}.cls-18{fill:url(#linear-gradient-11);}.cls-19{fill:url(#linear-gradient-12);}.cls-20{fill:url(#linear-gradient-13);}.cls-21{fill:url(#linear-gradient-14);}.cls-22{fill:url(#linear-gradient-15);}.cls-23{fill:url(#linear-gradient-16);}.cls-24{fill:url(#linear-gradient-17);}.cls-25{fill:url(#linear-gradient-18);}.cls-26{fill:url(#linear-gradient-19);}.cls-27{fill:url(#linear-gradient-20);}.cls-28{fill:url(#linear-gradient-21);}.cls-29{fill:url(#linear-gradient-22);}.cls-30{fill:url(#linear-gradient-23);}.cls-31{fill:url(#linear-gradient-24);}.cls-32{fill:url(#linear-gradient-25);}.cls-33{fill:url(#linear-gradient-26);}.cls-34{fill:url(#linear-gradient-27);}.cls-35{fill:url(#linear-gradient-28);}.cls-36{fill:url(#linear-gradient-29);}.cls-37{fill:url(#linear-gradient-30);}.cls-38{fill:url(#linear-gradient-31);}.cls-39{fill:url(#linear-gradient-32);}.cls-40{fill:url(#linear-gradient-33);}</style><linearGradient id="linear-gradient" x1="3589.08" y1="4044.93" x2="1112.14" y2="968.72" gradientUnits="userSpaceOnUse"><stop offset="0" stop-color="#dae3fe"/><stop offset="1" stop-color="#e9effd"/></linearGradient><linearGradient id="linear-gradient-2" x1="-97.54" y1="2775.38" x2="484.41" y2="1029.51" gradientTransform="matrix(-1, 0, 0, 1, 2009.63, 0)" gradientUnits="userSpaceOnUse"><stop offset="0" stop-color="#09005d"/><stop offset="1" stop-color="#1a0f91"/></linearGradient><linearGradient id="linear-gradient-3" x1="1200.21" y1="914.65" x2="-2009.85" y2="4581.09" gradientTransform="matrix(-1, 0, 0, 1, 2009.63, 0)" gradientUnits="userSpaceOnUse"><stop offset="0" stop-color="#ff928e"/><stop offset="1" stop-color="#fe7062"/></linearGradient><linearGradient id="linear-gradient-4" x1="1872.53" y1="2762.67" x2="2071.28" y2="1426.26" gradientTransform="translate(3705.91 5788.61) rotate(-180)" xlink:href="#linear-gradient-2"/><linearGradient id="linear-gradient-5" x1="4026.29" y1="-1609.18" x2="4598.33" y2="-1609.18" gradientTransform="translate(-1225.74 -1281.09) rotate(47.4)" gradientUnits="userSpaceOnUse"><stop offset="0" stop-color="#4f52ff"/><stop offset="1" stop-color="#4042e2"/></linearGradient><linearGradient id="linear-gradient-6" x1="4626.14" y1="-1759.86" x2="4659.55" y2="-1759.86" xlink:href="#linear-gradient-5"/><linearGradient id="linear-gradient-7" x1="4799.56" y1="-1504.57" x2="4822.49" y2="-1504.57" xlink:href="#linear-gradient-5"/><linearGradient id="linear-gradient-8" x1="4238.17" y1="-1243.79" x2="4827.39" y2="-1243.79" xlink:href="#linear-gradient-5"/><linearGradient id="linear-gradient-9" x1="4179.44" y1="-1119.58" x2="4212.42" y2="-1119.58" xlink:href="#linear-gradient-5"/><linearGradient id="linear-gradient-10" x1="5785.15" y1="-841.38" x2="3683.39" y2="-1764.1" xlink:href="#linear-gradient-5"/><linearGradient id="linear-gradient-11" x1="3686.02" y1="-1132.72" x2="3702.32" y2="-1132.72" xlink:href="#linear-gradient-5"/><linearGradient id="linear-gradient-12" x1="3679.42" y1="-1315.9" x2="3998.98" y2="-1315.9" xlink:href="#linear-gradient-5"/><linearGradient id="linear-gradient-13" x1="3822.04" y1="-1009.55" x2="4186.78" y2="-1009.55" xlink:href="#linear-gradient-5"/><linearGradient id="linear-gradient-14" x1="3781.95" y1="-986.73" x2="3806.89" y2="-986.73" xlink:href="#linear-gradient-5"/><linearGradient id="linear-gradient-15" x1="5620.26" y1="-466.35" x2="3518.51" y2="-1389.07" xlink:href="#linear-gradient-5"/><linearGradient id="linear-gradient-16" x1="2893.87" y1="-387.47" x2="2615.45" y2="189.75" gradientTransform="matrix(1, 0, 0, 1, 0, 0)" xlink:href="#linear-gradient-2"/><linearGradient id="linear-gradient-17" x1="-496.8" y1="1043.28" x2="154.41" y2="2641.69" gradientTransform="matrix(-1, 0, 0, 1, 1640.85, 0)" xlink:href="#linear-gradient-5"/><linearGradient id="linear-gradient-18" x1="-187.06" y1="1631.9" x2="-112.28" y2="2419.57" gradientTransform="matrix(-1, 0, 0, 1, 1640.85, 0)" xlink:href="#linear-gradient-3"/><linearGradient id="linear-gradient-19" x1="1846.66" y1="1854.05" x2="1592.58" y2="3759.68" gradientTransform="matrix(1, 0, 0, 1, 0, 0)" xlink:href="#linear-gradient-3"/><linearGradient id="linear-gradient-20" x1="-52.25" y1="2132.91" x2="-261.64" y2="2407.08" gradientTransform="matrix(-1, 0, 0, 1, 1640.85, 0)" gradientUnits="userSpaceOnUse"><stop offset="0" stop-color="#e1473d"/><stop offset="1" stop-color="#e9605a"/></linearGradient><linearGradient id="linear-gradient-21" x1="860.03" y1="-543.87" x2="762.06" y2="-215.18" gradientTransform="translate(765.5)" gradientUnits="userSpaceOnUse"><stop offset="0" stop-color="#53d8ff"/><stop offset="1" stop-color="#3840f7"/></linearGradient><linearGradient id="linear-gradient-22" x1="-300.27" y1="3151.09" x2="-260.41" y2="3151.09" gradientTransform="translate(765.5)" gradientUnits="userSpaceOnUse"><stop offset="0" stop-color="#a22b25"/><stop offset="1" stop-color="#c0423c"/></linearGradient><linearGradient id="linear-gradient-23" x1="1076.62" y1="-479.33" x2="978.64" y2="-150.64" xlink:href="#linear-gradient-21"/><linearGradient id="linear-gradient-24" x1="-98.92" y1="3133.4" x2="-59.29" y2="3133.4" xlink:href="#linear-gradient-22"/><linearGradient id="linear-gradient-25" x1="1081.16" y1="1659.58" x2="1022.31" y2="1747.86" gradientTransform="matrix(1, 0, 0, 1, 0, 0)" xlink:href="#linear-gradient-5"/><linearGradient id="linear-gradient-26" x1="-717.24" y1="2185.13" x2="-569.94" y2="2185.13" gradientTransform="translate(474.61 -314.14) rotate(-26.89)" xlink:href="#linear-gradient-22"/><linearGradient id="linear-gradient-27" x1="30.74" y1="1933.29" x2="-49.89" y2="2696.91" gradientTransform="translate(765.5)" xlink:href="#linear-gradient-5"/><linearGradient id="linear-gradient-28" x1="499.79" y1="2004.99" x2="181.52" y2="2400.95" xlink:href="#linear-gradient-22"/><linearGradient id="linear-gradient-29" x1="560.13" y1="2053.49" x2="241.86" y2="2449.45" xlink:href="#linear-gradient-22"/><linearGradient id="linear-gradient-30" x1="1106.09" y1="1812.37" x2="972.54" y2="1889.33" gradientTransform="matrix(1, 0, 0, 1, 0, 0)" xlink:href="#linear-gradient-22"/><linearGradient id="linear-gradient-31" x1="-212.68" y1="3887.25" x2="-348.91" y2="4067.46" gradientTransform="translate(-1257.93 -1428.5) rotate(-35.22)" xlink:href="#linear-gradient-22"/><linearGradient id="linear-gradient-32" x1="201.74" y1="1706.63" x2="216.94" y2="2269.31" gradientTransform="matrix(-1, 0, 0, 1, 1004.91, 0)" xlink:href="#linear-gradient-2"/><linearGradient id="linear-gradient-33" x1="-412.2" y1="4029.96" x2="-302.94" y2="3917.86" gradientTransform="translate(-1257.93 -1428.5) rotate(-35.22)" xlink:href="#linear-gradient-22"/></defs><title>20945292 [Converted]</title><path class="cls-1" d="M2907.66,2831.78c-56.9,59.9-110.73,98.52-153.26,129-500,358.73-1091.54,254.16-1217.27,228.62-185.66-37.7-544.54-110.59-804-415.72-392.54-461.62-331.42-1188.9-26.93-1669,55.69-87.82,349.89-575.22,947.85-653.38,361.87-47.31,783.71,48.1,1089.18,304C3384.45,1292.6,3338.8,2377.89,2907.66,2831.78Z" transform="translate(-440.47 -425.47)"/><path class="cls-2" d="M604.52,2838.72a45.68,45.68,0,0,0,45.56,45.52H3114.14a45.68,45.68,0,0,0,45.56-45.52l20.51-1416c0-25-29.5-73.91-83.56-70.24L688.5,1290.14a114.82,114.82,0,0,0-117.82,117.44Z" transform="translate(-440.47 -425.47)"/><path class="cls-3" d="M649.5,2795a43.24,43.24,0,0,0,43.11,43.11h2362.1a43.24,43.24,0,0,0,43.11-43.11l19.35-1285.47c-2.28-77.36-70.1-105.16-111.21-103.52L698,1344.13a80.7,80.7,0,0,0-82.79,82.58Z" transform="translate(-440.47 -425.47)"/><g class="cls-4"><path class="cls-5" d="M3072.29,2181.43h-.05a3.4,3.4,0,0,1-3.34-3.45l1.53-104.25a3.5,3.5,0,0,1,3.44-3.34,3.39,3.39,0,0,1,3.35,3.44l-1.53,104.25A3.4,3.4,0,0,1,3072.29,2181.43Z" transform="translate(-440.47 -425.47)"/><path class="cls-5" d="M3076.05,1926H3076a3.4,3.4,0,0,1-3.35-3.45l5.86-399.27c-.11-24.6-7.61-44.24-22.3-58.31-27.17-26-70.13-24.72-71.95-24.65l-737.49-19.77a3.4,3.4,0,0,1,.09-6.79h.06l737.27,19.78c1.76-.08,47.48-1.5,76.72,26.52,16.07,15.4,24.27,36.68,24.39,63.25l-5.86,399.34A3.39,3.39,0,0,1,3076.05,1926Z" transform="translate(-440.47 -425.47)"/></g><path class="cls-6" d="M2993.76,2723.73c-2.48-106.24-1.56-1047.08,4.54-1128.34s-120.45-96.49-314.74-105.64S850,1444.41,807.74,1441c-94.87-7.69-131.5,32.26-105,442,14.92,230.92,18.95,612.3,24.39,787.52a96.7,96.7,0,0,0,96.46,93.72c394.49,1.08,1906.43,5.41,2007.08,8.41C2946.48,2776.06,2994.74,2765.86,2993.76,2723.73Z" transform="translate(-440.47 -425.47)"/><rect class="cls-7" x="441.13" y="2832.1" width="2823.65" height="124.42" rx="7.51" transform="translate(3265.44 5363.14) rotate(180)"/><rect class="cls-6" x="354.56" y="1137.66" width="1923.12" height="160.53" rx="9"/><rect class="cls-6" x="354.56" y="2110.46" width="2086.86" height="160.53" rx="11.5"/><rect class="cls-6" x="1314.52" y="1879.3" width="1126.9" height="195.84"/><rect class="cls-5" x="354.56" y="1365.61" width="889.32" height="41.74"/><rect class="cls-5" x="354.56" y="1436.24" width="889.32" height="41.74"/><rect class="cls-5" x="354.56" y="1506.88" width="889.32" height="41.74"/><rect class="cls-8" x="354.56" y="1577.51" width="889.32" height="497.63"/><path class="cls-9" d="M2856.85,919.72c-7.09-.15-12.79-5.44-12.92-12-1.32-67.18-24-400.79-341.72-470.51-353.73-77.61-515.61,255-515.61,255S1548.93,537,1465,952.79c-274.43,60.91-345.73,392.3-167.24,554.24,28.37,25.73,66.38,40.27,106.11,40.6l1718.64,14.31c50.44.42,95.17-30.1,109.5-74.83C3285.68,1319.57,3356.05,930.53,2856.85,919.72Z" transform="translate(-440.47 -425.47)"/><path class="cls-10" d="M2817.57,926.85c-7.08-.16-12.77-5.43-12.92-12-1.4-64.44-23.85-373.79-323.1-438.63C2147.07,403.77,1994,714.39,1994,714.39s-413.85-144.95-493.22,243.33c-257,56.33-325.6,360.43-162.93,513.17,28.52,26.78,67.36,42,108,42.33l1617.87,13.31c50.55.42,95.35-30.25,109.58-75.11C3223.76,1292.31,3283.64,937.17,2817.57,926.85Z" transform="translate(-440.47 -425.47)"/><g class="cls-11"><path class="cls-12" d="M2525.69,755.32a10,10,0,0,1-.13-13.42c7.5-8.49,15.47-16.79,23.71-24.65a10,10,0,0,1,14.18.32l.13.15a10,10,0,0,1-.46,14c-7.82,7.47-15.4,15.35-22.52,23.42a10,10,0,0,1-14.15.89C2526.18,755.82,2525.93,755.57,2525.69,755.32Zm64.75-58.66c-.26-.29-.51-.6-.75-.92a10,10,0,0,1,2.25-14c9.23-6.66,18.82-13,28.53-18.82a10,10,0,0,1,10.33,17.19c-9.23,5.54-18.35,11.56-27.11,17.89A10,10,0,0,1,2590.44,696.66Zm76.06-42.94a10,10,0,0,1,3.47-16c10.45-4.44,21.22-8.47,32-12a10,10,0,0,1,6.22,19.07c-10.26,3.35-20.48,7.18-30.41,11.39A10,10,0,0,1,2666.5,653.72Zm83.76-24.86a9.93,9.93,0,0,1-2.48-5,10,10,0,0,1,8.12-11.63c11.18-2,22.59-3.51,33.9-4.53a10,10,0,0,1,1.81,20c-10.74,1-21.58,2.42-32.21,4.31A10,10,0,0,1,2750.26,628.86Zm87.2-5.56a10,10,0,0,1,7.87-16.8c11.32.54,22.77,1.58,34.05,3.08a10,10,0,0,1-2.65,19.88c-10.72-1.43-21.61-2.41-32.37-2.93A10,10,0,0,1,2837.46,623.3Zm86.26,13.87a10,10,0,0,1,10.06-16.46c10.93,3,21.88,6.59,32.52,10.54a10,10,0,1,1-7,18.8c-10.11-3.76-20.51-7.13-30.9-10A10,10,0,0,1,2923.72,637.17ZM3190,891.52a9.91,9.91,0,0,1-2.14-3.66c-3.35-10.24-7.2-20.46-11.44-30.4a10,10,0,1,1,18.45-7.87c4.46,10.47,8.52,21.24,12.05,32a10,10,0,0,1-16.92,9.91ZM3004.7,669.79a10,10,0,0,1,12.15-15.62c10,5.4,19.87,11.29,29.35,17.53a10,10,0,1,1-11,16.76c-9-5.92-18.38-11.52-27.87-16.64A10.15,10.15,0,0,1,3004.7,669.79Zm148.91,142.32a9.68,9.68,0,0,1-1.21-1.61c-5.57-9.23-11.61-18.35-18-27.09a10,10,0,1,1,16.23-11.78c6.67,9.2,13,18.79,18.89,28.5a10,10,0,0,1-16,12Zm-77.24-92.43a10,10,0,0,1,14-14.31c8.52,7.48,16.83,15.44,24.69,23.64l.15.16a10,10,0,0,1-14.62,13.72c-7.47-7.79-15.37-15.34-23.46-22.46C3076.87,720.19,3076.61,719.94,3076.37,719.68Z" transform="translate(-440.47 -425.47)"/><path class="cls-13" d="M3205.83,960.15a10,10,0,0,1-2.55-5.43c-.7-5.12-1.52-10.31-2.43-15.44a10,10,0,1,1,19.74-3.51c1,5.38,1.83,10.84,2.56,16.24a10,10,0,0,1-17.32,8.14Z" transform="translate(-440.47 -425.47)"/></g><g class="cls-11"><path class="cls-14" d="M3125.65,1255.19a10,10,0,0,1-.49-13c3.21-4.06,6.38-8.25,9.44-12.46a10,10,0,1,1,16.24,11.77c-3.22,4.43-6.56,8.85-9.93,13.12a10,10,0,0,1-14.09,1.65A8.68,8.68,0,0,1,3125.65,1255.19Z" transform="translate(-440.47 -425.47)"/><path class="cls-15" d="M2531.68,1278q-4.68-5.1-9.23-10.39a10,10,0,0,1,15.22-13.08c7,8.15,14.3,16,21.81,23.39a10,10,0,0,1-14.08,14.28C2540.75,1287.63,2536.14,1282.85,2531.68,1278Zm-40.91-52.81a10.85,10.85,0,0,1-1-1.36c-6.08-9.39-11.83-19.15-17.08-29a10,10,0,0,1,17.69-9.44c5,9.36,10.45,18.62,16.23,27.55a10,10,0,0,1-15.8,12.25Zm94.69,101.37a10,10,0,0,1,13.39-14.82c8.49,6.34,17.37,12.4,26.39,18a10,10,0,1,1-10.6,17c-9.5-5.91-18.85-12.29-27.79-19A10.4,10.4,0,0,1,2585.46,1326.57ZM2452.3,1148.29a10.11,10.11,0,0,1-2-3.33c-3.86-10.49-7.32-21.27-10.28-32a10,10,0,0,1,19.34-5.32c2.81,10.23,6.09,20.47,9.76,30.43a10,10,0,0,1-16.8,10.26ZM2659.58,1370a10,10,0,0,1,11.47-16c9.67,4.31,19.66,8.27,29.7,11.77a10,10,0,0,1-6.6,18.94c-10.56-3.68-21.08-7.85-31.27-12.39A10.06,10.06,0,0,1,2659.58,1370Zm81.87,26.14a10,10,0,0,1,9.36-16.62c10.41,2.1,21,3.78,31.57,5a10,10,0,0,1-2.32,19.92c-11.08-1.29-22.26-3.06-33.22-5.27A9.92,9.92,0,0,1,2741.45,1396.16Zm85.62,7.68a10,10,0,0,1,7.18-16.82c10.63-.21,21.36-.88,31.9-2a10,10,0,1,1,2.08,20c-11.09,1.15-22.39,1.86-33.58,2.09A10,10,0,0,1,2827.07,1403.84Zm85.24-11.19a10,10,0,0,1,5-16.52c10.32-2.53,20.64-5.53,30.69-8.92a10,10,0,1,1,6.41,19c-10.58,3.57-21.46,6.73-32.32,9.4A10,10,0,0,1,2912.31,1392.65Zm80.74-29.63a10,10,0,0,1,2.91-15.77c9.48-4.73,18.88-9.93,27.95-15.46a10,10,0,0,1,10.44,17.12c-9.55,5.82-19.45,11.3-29.43,16.29A10.06,10.06,0,0,1,2993.05,1363Zm72.21-46.62c-.14-.15-.27-.31-.4-.47a10,10,0,0,1,1.45-14.11c6.07-4.93,12.06-10.1,17.8-15.39q3.12-2.87,6.16-5.79a10,10,0,0,1,14.18.29,9.92,9.92,0,0,1-.28,14.18c-2.14,2.05-4.29,4.08-6.48,6.09-6,5.55-12.34,11-18.73,16.19A10,10,0,0,1,3065.26,1316.4Z" transform="translate(-440.47 -425.47)"/><path class="cls-16" d="M2431.69,1064.56a10,10,0,0,1-2.56-5.48c-.71-5.38-1.32-10.88-1.81-16.34a10,10,0,0,1,20-1.8c.46,5.19,1,10.41,1.71,15.53a10,10,0,0,1-17.32,8.09Z" transform="translate(-440.47 -425.47)"/></g><path class="cls-17" d="M2526.47,995.79a4.69,4.69,0,0,0,2.5,4.83l50.73,26.09a248.51,248.51,0,0,0,19.88,78l-32,47.17a4.67,4.67,0,0,0,.12,5.44l41,54.78a4.7,4.7,0,0,0,5.19,1.66l54.28-17.42a248.42,248.42,0,0,0,69.25,41.07l10.73,56a4.69,4.69,0,0,0,3.94,3.75l67.73,9.75a4.68,4.68,0,0,0,4.83-2.5l26.09-50.73a248.51,248.51,0,0,0,78-19.88l47.17,32a4.67,4.67,0,0,0,5.44-.12l54.79-41a4.68,4.68,0,0,0,1.65-5.18l-17.42-54.29a248.42,248.42,0,0,0,41.07-69.25l56-10.72a4.71,4.71,0,0,0,3.76-3.94l9.74-67.73a4.69,4.69,0,0,0-2.5-4.84l-50.73-26.08a248.51,248.51,0,0,0-19.88-78l32-47.18a4.69,4.69,0,0,0-.13-5.44l-41-54.78a4.69,4.69,0,0,0-5.19-1.65L2989.29,813A248.62,248.62,0,0,0,2920,772l-10.73-56a4.71,4.71,0,0,0-3.94-3.76l-67.73-9.74a4.68,4.68,0,0,0-4.83,2.49l-26.09,50.74a248.51,248.51,0,0,0-78,19.88l-47.17-32a4.69,4.69,0,0,0-5.44.13l-54.79,41a4.69,4.69,0,0,0-1.65,5.19l17.42,54.28A248.42,248.42,0,0,0,2596,913.39l-56,10.73a4.71,4.71,0,0,0-3.76,3.94Z" transform="translate(-440.47 -425.47)"/><path class="cls-10" d="M2778.06,1051.23a68.82,68.82,0,1,1,7.36,6.91A70.1,70.1,0,0,1,2778.06,1051.23Zm89.57-82.15a53.63,53.63,0,0,0-5.7-5.35,52.48,52.48,0,1,0,5.7,5.35Z" transform="translate(-440.47 -425.47)"/><path class="cls-10" d="M2705.88,1119.5a171.05,171.05,0,0,1-11.1-13.37h0q-1.65-2.2-3.23-4.46a170.22,170.22,0,0,1-13.72-23.36c0-.11-.1-.22-.16-.33l-.45-1c-.29-.61-.57-1.22-.86-1.84a4,4,0,0,1,7.3-3.35,161.21,161.21,0,0,0,243.05,61.93q6.69-5,12.76-10.59a161.15,161.15,0,0,0,19.69-214.92c-53.26-71.15-154.4-85.67-225.52-32.45q-6.57,4.94-12.59,10.46a160.63,160.63,0,0,0-40,57.39,4,4,0,0,1-7.43-3,169.42,169.42,0,0,1,55.16-71.23c74.67-55.88,180.88-40.58,236.75,34.06a169.16,169.16,0,0,1-20.67,225.62,171.6,171.6,0,0,1-13.39,11.12,169.16,169.16,0,0,1-225.64-20.69Z" transform="translate(-440.47 -425.47)"/><g class="cls-11"><path class="cls-18" d="M2099.52,682.27a6.18,6.18,0,0,1-.75-7.38c2.71-4.51,5.6-9,8.58-13.33a6.19,6.19,0,1,1,10.21,7c-2.84,4.14-5.59,8.41-8.18,12.71a6.2,6.2,0,0,1-8.5,2.11A5.94,5.94,0,0,1,2099.52,682.27Z" transform="translate(-440.47 -425.47)"/><path class="cls-19" d="M2127.73,643.88a6.2,6.2,0,0,1-.07-8.3,269.47,269.47,0,0,1,19.1-19.44q2.1-1.93,4.26-3.84a6.41,6.41,0,0,1,8.74.55,6.2,6.2,0,0,1-.54,8.75q-2.07,1.81-4.08,3.66a256.91,256.91,0,0,0-18.21,18.54,6.21,6.21,0,0,1-9.2.08ZM2176,601.36a5.29,5.29,0,0,1-.55-.7,6.18,6.18,0,0,1,1.61-8.61,269,269,0,0,1,28.29-16.93,6.19,6.19,0,1,1,5.69,11,255.79,255.79,0,0,0-27,16.15A6.2,6.2,0,0,1,2176,601.36Zm57.13-29.55a6.13,6.13,0,0,1-1.26-2,6.2,6.2,0,0,1,3.68-8,264.5,264.5,0,0,1,31.6-9.46,6.19,6.19,0,1,1,2.81,12.06,255.81,255.81,0,0,0-30.13,9A6.18,6.18,0,0,1,2233.11,571.81Zm62.64-14.6a6.19,6.19,0,0,1,3.91-10.35,268.84,268.84,0,0,1,33-1.44,6.2,6.2,0,0,1-.23,12.39,255.89,255.89,0,0,0-31.42,1.37A6.14,6.14,0,0,1,2295.75,557.21Zm64.3,1.14a6.2,6.2,0,0,1,5.43-10.33,270.58,270.58,0,0,1,32.29,6.61,6.19,6.19,0,1,1-3.22,12,260,260,0,0,0-30.81-6.3A6.19,6.19,0,0,1,2360.05,558.35Zm62.07,16.71a6.19,6.19,0,0,1,6.89-9.93,264.85,264.85,0,0,1,29.7,14.28,6.19,6.19,0,0,1-6,10.81,254.87,254.87,0,0,0-28.32-13.61A6.13,6.13,0,0,1,2422.12,575.06Zm56.09,31.38a6.19,6.19,0,0,1,8.23-9.18,267.87,267.87,0,0,1,25.31,21.14,6.2,6.2,0,0,1-8.52,9,252.85,252.85,0,0,0-24.13-20.16A6.19,6.19,0,0,1,2478.21,606.44Zm65.67,70.26a7.18,7.18,0,0,1-.67-.87,256.49,256.49,0,0,0-15.92-22.24c-.86-1.08-1.72-2.14-2.59-3.18a6.21,6.21,0,0,1,.82-8.73,6.14,6.14,0,0,1,8.73.82c.92,1.12,1.83,2.24,2.73,3.38a269.45,269.45,0,0,1,16.68,23.29,6.2,6.2,0,0,1-9.78,7.53Z" transform="translate(-440.47 -425.47)"/></g><g class="cls-11"><path class="cls-20" d="M2133.57,996.64a6.19,6.19,0,0,1,9.06-8.44,257.55,257.55,0,0,0,22.55,21.17,6.2,6.2,0,0,1-7.92,9.53,270.78,270.78,0,0,1-23.64-22.2Zm-20.33-24.31c-.15-.17-.29-.34-.43-.52a272.68,272.68,0,0,1-17.68-27.19,6.2,6.2,0,0,1,10.78-6.12,259.5,259.5,0,0,0,16.87,26,6.2,6.2,0,0,1-9.54,7.88Zm69,64.72a6.19,6.19,0,0,1,7.9-9.41,256.11,256.11,0,0,0,27,15.09,6.2,6.2,0,0,1-5.38,11.17,268.91,268.91,0,0,1-28.31-15.83A6.41,6.41,0,0,1,2182.22,1037.05ZM2082,917.28a6.43,6.43,0,0,1-1.16-1.82,265.73,265.73,0,0,1-10.59-30.67,6.19,6.19,0,1,1,11.93-3.32,256.26,256.26,0,0,0,10.1,29.24,6.19,6.19,0,0,1-10.28,6.57Zm157.17,147.21a6.2,6.2,0,0,1,6.54-10.07,254.59,254.59,0,0,0,29.84,8.16,6.2,6.2,0,0,1-2.54,12.13,270.27,270.27,0,0,1-31.28-8.55A6.21,6.21,0,0,1,2239.2,1064.49Zm61.89,13a6.2,6.2,0,0,1,5.09-10.37,257.76,257.76,0,0,0,30.93.79,6.19,6.19,0,0,1,.44,12.38,270.17,270.17,0,0,1-32.43-.82A6.2,6.2,0,0,1,2301.09,1077.46Zm63.23-2.23a6.06,6.06,0,0,1-1.55-3.22,6.2,6.2,0,0,1,5.15-7.09,252,252,0,0,0,30.22-6.65,6.19,6.19,0,0,1,3.4,11.91,268.84,268.84,0,0,1-31.69,7A6.2,6.2,0,0,1,2364.32,1075.23Z" transform="translate(-440.47 -425.47)"/><path class="cls-21" d="M2065,856a6.14,6.14,0,0,1-1.56-3.28c-.79-5.24-1.42-10.53-1.89-15.72a6.19,6.19,0,0,1,12.34-1.11c.45,5,1,10,1.8,15A6.2,6.2,0,0,1,2065,856Z" transform="translate(-440.47 -425.47)"/></g><path class="cls-22" d="M2127.4,805.67a3.13,3.13,0,0,0,1.67,3.23L2163,826.36a166.08,166.08,0,0,0,13.3,52.21l-21.42,31.56a3.12,3.12,0,0,0,.08,3.64l27.44,36.66a3.14,3.14,0,0,0,3.47,1.11l36.32-11.66a166,166,0,0,0,46.34,27.48l7.18,37.5a3.13,3.13,0,0,0,2.63,2.51l45.32,6.52a3.14,3.14,0,0,0,3.24-1.67l17.46-34a166.22,166.22,0,0,0,52.2-13.3l31.57,21.42a3.14,3.14,0,0,0,3.64-.08l36.66-27.44a3.14,3.14,0,0,0,1.11-3.47l-11.66-36.32a166.36,166.36,0,0,0,27.48-46.34l37.49-7.18a3.13,3.13,0,0,0,2.52-2.64l6.52-45.32a3.13,3.13,0,0,0-1.67-3.23l-33.95-17.46A166.35,166.35,0,0,0,2483,744.7l21.42-31.56a3.12,3.12,0,0,0-.09-3.64l-27.43-36.66a3.14,3.14,0,0,0-3.47-1.11l-36.33,11.66a166,166,0,0,0-46.34-27.48l-7.18-37.5a3.13,3.13,0,0,0-2.63-2.51l-45.32-6.52a3.14,3.14,0,0,0-3.24,1.67l-17.45,34a166.35,166.35,0,0,0-52.21,13.3l-31.57-21.42a3.14,3.14,0,0,0-3.64.08l-36.65,27.44a3.12,3.12,0,0,0-1.11,3.47l11.65,36.32a166.6,166.6,0,0,0-27.48,46.34l-37.49,7.18a3.13,3.13,0,0,0-2.51,2.64Z" transform="translate(-440.47 -425.47)"/><path class="cls-10" d="M2295.09,843.28a47,47,0,1,1,5.06,4.75A48.49,48.49,0,0,1,2295.09,843.28Zm59.95-55a35.83,35.83,0,0,0-3.69-3.47,34.47,34.47,0,0,0-43.4,53.56h0A34.47,34.47,0,0,0,2355,788.32Z" transform="translate(-440.47 -425.47)"/><path class="cls-10" d="M2244.79,890.74q-4-4.34-7.58-9.13A117.46,117.46,0,0,1,2225,861.23l-.45-1a6.19,6.19,0,1,1,11.26-5.16,104.58,104.58,0,0,0,11.36,19.08h0c.24.33.49.65.74,1a103.25,103.25,0,0,0,40,31.72,105.35,105.35,0,0,0,27,7.91l.23,0,.7.1a103.61,103.61,0,0,0,77.35-19.73,105.4,105.4,0,0,0,8.26-6.86A104.3,104.3,0,0,0,2268.13,728.2,101.91,101.91,0,0,0,2260,735a104,104,0,0,0-25.87,37.15,6,6,0,0,1-1.54,2.21,6.19,6.19,0,0,1-9.92-6.91,116.42,116.42,0,0,1,28.94-41.57q4.35-4,9.11-7.57a116.69,116.69,0,0,1,149.08,179.16q-4.4,4-9.24,7.67A116.85,116.85,0,0,1,2244.79,890.74Z" transform="translate(-440.47 -425.47)"/><path class="cls-23" d="M893.53,1578.66a175.41,175.41,0,0,1,99.89-147l744.32-353.51a175.59,175.59,0,0,1,150.66,0l744.33,353.51a175.38,175.38,0,0,1,99.88,147c69.82,1079.21-622.16,1472.43-849,1571.76a175.8,175.8,0,0,1-141.09,0C1515.69,3051.09,823.72,2657.87,893.53,1578.66Z" transform="translate(-440.47 -425.47)"/><path class="cls-10" d="M2038.22,1225a8.39,8.39,0,0,1-3.63-.82l-175.87-83.53a8.49,8.49,0,1,1,7.28-15.34l175.87,83.53a8.49,8.49,0,0,1-3.65,16.16Z" transform="translate(-440.47 -425.47)"/><path class="cls-10" d="M2675.7,1807.53h-.3a8.5,8.5,0,0,1-8.2-8.77c2.34-69.56,1.11-142.11-3.64-215.64a106.22,106.22,0,0,0-60.52-88.93l-500.71-237.81a8.49,8.49,0,1,1,7.28-15.34l500.71,237.81A123.2,123.2,0,0,1,2680.5,1582c4.79,74.07,6,147.19,3.67,217.3A8.48,8.48,0,0,1,2675.7,1807.53Z" transform="translate(-440.47 -425.47)"/><path class="cls-24" d="M1073.53,1620.78a43.86,43.86,0,0,1,25-37.37l695.82-330.47a43.78,43.78,0,0,1,37.55,0l695.82,330.47a43.86,43.86,0,0,1,24.95,37.37c20.58,402.58-72.41,738.48-276.58,998.82-155.66,198.49-337.74,304.86-444.45,354.48a43.85,43.85,0,0,1-37,0c-106.7-49.62-288.79-156-444.44-354.48C1145.94,2359.26,1053,2023.35,1073.53,1620.78Z" transform="translate(-440.47 -425.47)"/><path class="cls-25" d="M2018.81,2053.31h69.35V1777c0-108.55-81.26-200.27-189-213.37l-141.8-17.23a214.92,214.92,0,0,0-240.86,213.37V2001h69.34V1759.72A145.61,145.61,0,0,1,1749,1615.19l141.79,17.23a145.73,145.73,0,0,1,128,144.53Z" transform="translate(-440.47 -425.47)"/><path class="cls-26" d="M2108.66,1991.26l-607.91-33.68a43.09,43.09,0,0,0-45.46,43v481.59a43.07,43.07,0,0,0,43.08,43.07h593.3a43.07,43.07,0,0,0,43-41.67l14.61-447.91A43.09,43.09,0,0,0,2108.66,1991.26Z" transform="translate(-440.47 -425.47)"/><path class="cls-27" d="M1703.22,2387.3,1740,2281.52a35.43,35.43,0,0,0-8-36.52,99.86,99.86,0,0,1-28.76-75c2.35-51.61,44.5-93.44,96.12-95.42a100.16,100.16,0,0,1,67,177.9,35.7,35.7,0,0,0-11.6,39.45l33.17,95.37a35.7,35.7,0,0,1-33.71,47.43H1736.93A35.7,35.7,0,0,1,1703.22,2387.3Z" transform="translate(-440.47 -425.47)"/><path class="cls-28" d="M468.94,3162.13s-10.91,17.21-13.66,65.4a7.85,7.85,0,0,0,7.8,8.32h85.4a5,5,0,0,0,4.79-6.63c-5-14.81-20.14-50.92-53.9-71.56Z" transform="translate(-440.47 -425.47)"/><path class="cls-29" d="M465.23,3129.48l4.83,40.5a7.63,7.63,0,0,0,6.66,6.69,67.25,67.25,0,0,0,18-.17,12.51,12.51,0,0,0,10.32-12.41V3125Z" transform="translate(-440.47 -425.47)"/><path class="cls-30" d="M680.24,3157.66s-16.35,25.41-16,60.29a15.09,15.09,0,0,0,15.18,14.75H812.06a6.35,6.35,0,0,0,3.64-11.55c-25.09-17.62-74.42-50.54-110.1-63.49Z" transform="translate(-440.47 -425.47)"/><path class="cls-31" d="M666.58,3113.92l10.3,50a10.32,10.32,0,0,0,12.2,8.12,37.4,37.4,0,0,0,11.66-4.88A11.82,11.82,0,0,0,706,3155.1l-10.65-60.6Z" transform="translate(-440.47 -425.47)"/><path class="cls-9" d="M484.16,2418.46S448.34,2450,441.59,2488s19.1,655.59,19.1,655.59,35.83,6,54.29-5.23c0,0,21.9-400.81,38.55-493.43,0,0,87.31,415.18,111.5,490.2,0,0,34.51,4.2,45.64-2.36,0,0-22.87-538.2-51.61-633.89Z" transform="translate(-440.47 -425.47)"/><path class="cls-10" d="M552.49,2632.79a4.85,4.85,0,0,0,1.19-.15,4.74,4.74,0,0,0,3.4-5.78l-15.22-58.37a4.72,4.72,0,0,0-2-2.8L507,2544.6a4.74,4.74,0,0,0-5.12,8l31.31,20.09,14.75,56.57A4.74,4.74,0,0,0,552.49,2632.79Z" transform="translate(-440.47 -425.47)"/><path class="cls-32" d="M779.22,2080.8c-140.16,57-161.2,102.69-161.2,102.69l116.38,69.27s130.83-69.62,188.52-190.62c-27.4-10.1-50.4-25-66.62-37.38C837,2047.29,811.92,2067.5,779.22,2080.8Z" transform="translate(-440.47 -425.47)"/><path class="cls-33" d="M889.75,1776.58a4.63,4.63,0,0,0-8.66,2.4l1.41,45.33a42.72,42.72,0,0,0,8.47,24.24l16.82,18.27a41.23,41.23,0,0,1,7.35,33.09c-5.77,27.71-21.1,80.74-58.84,124.85,16.22,12.42,39.22,27.28,66.62,37.38,21.17-44.4,32.51-95.71,23.9-153a20.19,20.19,0,0,0,3.63-24.33Z" transform="translate(-440.47 -425.47)"/><path class="cls-34" d="M887.31,2127.93c-53.09-57.2-154.21-83-212.76-93.66a53.71,53.71,0,0,0-60,34.05c-26.34,70.83-98,255.09-111.89,286.76-11.39,26-23.29,51.35-30.85,67.21a19,19,0,0,0,8.89,25.38c49.25,23.74,137.89,50.61,173.82,61.09a12.33,12.33,0,0,0,15.77-11.87,38.47,38.47,0,0,1,5.5-19.82l136.08-226.78c84.83,94.05,159.11,102.65,216.17,82.07a429.5,429.5,0,0,1-18.89-89.13C924.83,2228.79,887.31,2127.93,887.31,2127.93Z" transform="translate(-440.47 -425.47)"/><path class="cls-35" d="M1148.47,2227.45l-15.21-20.29c-49.25,33.83-90.42,41.85-124.13,36.07a429.5,429.5,0,0,0,18.89,89.13C1103.19,2305.24,1148.47,2227.45,1148.47,2227.45Z" transform="translate(-440.47 -425.47)"/><path class="cls-36" d="M1137.75,2227.81l85.71,3.34,78.91-44.07c-11.33-7.1-75.38,7.41-75.38,7.41s-67-10.12-85.09-10.15c-15.05,0-12.9,21.63-11.74,29,.23,1.5.43,2.4.43,2.4Z" transform="translate(-440.47 -425.47)"/><path class="cls-37" d="M755.08,1929.21l-45.22,110.35s52,36,93.76,32.54l22.57-99.22Z" transform="translate(-440.47 -425.47)"/><path class="cls-38" d="M831.47,1854c1,1.47,32.72,115.91,32.72,115.91l-65.73,16.7-46.14-104S814.13,1829.41,831.47,1854Z" transform="translate(-440.47 -425.47)"/><path class="cls-39" d="M777.07,1898.38l20,56.66a8.47,8.47,0,0,0,1,2c2.72,3.85,13,16.44,25.26,5.1,11.1-10.28,21.38-19.5,30.88-21.18a8.38,8.38,0,0,1,9.54,6c2.88,10.4,8.93,34,11.06,55.22a8.38,8.38,0,0,1-6.81,9c-12.84,2.43-40.06,6.82-62.78,5.22a8.42,8.42,0,0,1-7.08-4.88c-6.26-13.68-25.45-55.2-32.58-65.94-6.7-10.09-23.12-9.8-30-9.19a8.22,8.22,0,0,1-6.18-2c-6-5.28-17.49-18.76-1.36-34.9a8.41,8.41,0,0,0-.2-12.1c-6.92-6.51-14.33-18.06-2.79-32.39,11.73-14.56,27.21-12.24,36.7-8.78a8.39,8.39,0,0,0,10.1-3.73c1.19-2,3.26-3.51,6.85-3.2a8.27,8.27,0,0,0,8.82-8.48c-.17-9.33,3.17-21.11,19.36-26.15,28.71-8.94,46.62,18.8,48.39,39.5s-29.91,28.62-48.54,27.23c-14.16-1.07-24.68,13-28.91,19.77A8.28,8.28,0,0,0,777.07,1898.38Z" transform="translate(-440.47 -425.47)"/><path class="cls-40" d="M773.08,1966.21s-4.63-35.93-19.58-37.69S724,1939,738.86,1959.21C757.35,1984.3,773.08,1966.21,773.08,1966.21Z" transform="translate(-440.47 -425.47)"/></svg>